<?xml version="1.0" encoding="UTF-8" standalone="no"?>
<!DOCTYPE svg PUBLIC "-//W3C//DTD SVG 1.1//EN" "http://www.w3.org/Graphics/SVG/1.1/DTD/svg11.dtd">
<svg version="1.1" xmlns="http://www.w3.org/2000/svg" xmlns:xlink="http://www.w3.org/1999/xlink" preserveAspectRatio="xMidYMid meet" viewBox="0 0 97 97" width="97" height="97"><defs><path d="M34.27 33.86C33.53 33.86 29.81 33.86 23.12 33.86C23.12 39.75 23.12 43.02 23.12 43.67C30.32 43.67 34.33 43.67 35.13 43.67C37.2 43.67 39.04 43.01 39.04 38.43C39.04 33.86 36.54 34.77 35.92 33.86C35.81 33.86 35.26 33.86 34.27 33.86Z" id="ac5JplSqE"></path><path d="M34.27 33.86C33.53 33.86 29.81 33.86 23.12 33.86C23.12 39.75 23.12 43.02 23.12 43.67C30.32 43.67 34.33 43.67 35.13 43.67C37.2 43.67 39.04 43.01 39.04 38.43C39.04 33.86 36.54 34.77 35.92 33.86C35.81 33.86 35.26 33.86 34.27 33.86Z" id="a11fwaiDbs"></path><path d="M23.12 62.21C30.45 62.21 34.52 62.21 35.33 62.21C37.17 62.16 40.56 61.59 40.56 56.5C40.56 50.39 35.92 50.46 35.92 50.46C34.22 50.46 29.95 50.46 23.12 50.46C23.12 52.81 23.12 61.04 23.12 62.21Z" id="cCh0zcbe"></path><path d="M23.12 62.21C30.45 62.21 34.52 62.21 35.33 62.21C37.17 62.16 40.56 61.59 40.56 56.5C40.56 50.39 35.92 50.46 35.92 50.46C34.22 50.46 29.95 50.46 23.12 50.46C23.12 52.81 23.12 61.04 23.12 62.21Z" id="avFZYAtzX"></path><path d="M75.42 50.46C75.42 50.46 75.51 43.67 68.71 43.67C61.92 43.67 62.52 49.1 60.97 50.46C62.41 50.46 73.98 50.46 75.42 50.46Z" id="c2nbWyZqPi"></path><path d="M75.42 50.46C75.42 50.46 75.51 43.67 68.71 43.67C61.92 43.67 62.52 49.1 60.97 50.46C62.41 50.46 73.98 50.46 75.42 50.46Z" id="b2Gvj7NEi2"></path><path d="M48.5 97C75.29 97 97 75.28 97 48.5C97 21.72 75.29 0 48.5 0C21.71 0 0 21.72 0 48.5C0 75.28 21.71 97 48.5 97ZM77.23 34.04L59.07 34.04L59.07 28.63L77.23 28.63L77.23 34.04ZM23.12 70.03C23.09 70.03 22.97 70.03 22.74 70.03L13.03 70.03L13.03 26.03L22.74 26.03C22.97 26.03 23.09 26.03 23.12 26.03C30.8 26.03 35.07 26.03 35.92 26.03C42.88 26.03 48.37 29.88 48.37 37.75C48.37 45.62 41.66 46.12 41.66 46.12C50.51 46.12 49.9 57.04 49.9 57.04C49.9 70.47 38.72 67.43 35.92 70.03C35.07 70.03 30.8 70.03 23.12 70.03ZM83.6 59.25C83.6 71.81 68.54 70.95 68.54 70.95C50.47 70.95 51.63 54.13 51.63 54.13C51.63 54.13 51.62 37.23 68.54 37.23C86.35 37.23 83.85 56.33 83.85 56.33C81.57 56.33 63.33 56.33 61.05 56.33C61.05 64.5 68.8 63.98 68.8 63.98C76.11 63.98 74.44 60.2 75.85 59.25C76.63 59.25 82.82 59.25 83.6 59.25Z" id="c2yYFqRwKY"></path><path d="M48.5 97C75.29 97 97 75.28 97 48.5C97 21.72 75.29 0 48.5 0C21.71 0 0 21.72 0 48.5C0 75.28 21.71 97 48.5 97ZM77.23 34.04L59.07 34.04L59.07 28.63L77.23 28.63L77.23 34.04ZM23.12 70.03C23.09 70.03 22.97 70.03 22.74 70.03L13.03 70.03L13.03 26.03L22.74 26.03C22.97 26.03 23.09 26.03 23.12 26.03C30.8 26.03 35.07 26.03 35.92 26.03C42.88 26.03 48.37 29.88 48.37 37.75C48.37 45.62 41.66 46.12 41.66 46.12C50.51 46.12 49.9 57.04 49.9 57.04C49.9 70.47 38.72 67.43 35.92 70.03C35.07 70.03 30.8 70.03 23.12 70.03ZM83.6 59.25C83.6 71.81 68.54 70.95 68.54 70.95C50.47 70.95 51.63 54.13 51.63 54.13C51.63 54.13 51.62 37.23 68.54 37.23C86.35 37.23 83.85 56.33 83.85 56.33C81.57 56.33 63.33 56.33 61.05 56.33C61.05 64.5 68.8 63.98 68.8 63.98C76.11 63.98 74.44 60.2 75.85 59.25C76.63 59.25 82.82 59.25 83.6 59.25Z" id="c14QKjEHg6"></path></defs><g><g><g><use xlink:href="#ac5JplSqE" opacity="1" fill="#ffffff" fill-opacity="1"></use><g><use xlink:href="#ac5JplSqE" opacity="1" fill-opacity="0" stroke="#000000" stroke-width="1" stroke-opacity="0"></use></g></g><g><use xlink:href="#a11fwaiDbs" opacity="1" fill="#000000" fill-opacity="0"></use><g><use xlink:href="#a11fwaiDbs" opacity="1" fill-opacity="0" stroke="#000000" stroke-width="1" stroke-opacity="0"></use></g></g><g><use xlink:href="#cCh0zcbe" opacity="1" fill="#ffffff" fill-opacity="1"></use><g><use xlink:href="#cCh0zcbe" opacity="1" fill-opacity="0" stroke="#000000" stroke-width="1" stroke-opacity="0"></use></g></g><g><use xlink:href="#avFZYAtzX" opacity="1" fill="#000000" fill-opacity="0"></use><g><use xlink:href="#avFZYAtzX" opacity="1" fill-opacity="0" stroke="#000000" stroke-width="1" stroke-opacity="0"></use></g></g><g><use xlink:href="#c2nbWyZqPi" opacity="1" fill="#ffffff" fill-opacity="1"></use><g><use xlink:href="#c2nbWyZqPi" opacity="1" fill-opacity="0" stroke="#000000" stroke-width="1" stroke-opacity="0"></use></g></g><g><use xlink:href="#b2Gvj7NEi2" opacity="1" fill="#000000" fill-opacity="0"></use><g><use xlink:href="#b2Gvj7NEi2" opacity="1" fill-opacity="0" stroke="#000000" stroke-width="1" stroke-opacity="0"></use></g></g><g><use xlink:href="#c2yYFqRwKY" opacity="1" fill="#ffffff" fill-opacity="1"></use><g><use xlink:href="#c2yYFqRwKY" opacity="1" fill-opacity="0" stroke="#000000" stroke-width="1" stroke-opacity="0"></use></g></g><g><use xlink:href="#c14QKjEHg6" opacity="1" fill="#000000" fill-opacity="0"></use><g><use xlink:href="#c14QKjEHg6" opacity="1" fill-opacity="0" stroke="#000000" stroke-width="1" stroke-opacity="0"></use></g></g></g></g></svg>